<mxfile host="app.diagrams.net" modified="2023-10-02T10:56:27.365Z" agent="Mozilla/5.0 (Windows NT 10.0; Win64; x64) AppleWebKit/537.36 (KHTML, like Gecko) Chrome/117.0.0.0 Safari/537.36" etag="JJ6Gcm-5F4yUFB9ukcnK" version="21.7.5" type="device" pages="2">
  <diagram name="Get User Sequence" id="2YBvvXClWsGukQMizWep">
    <mxGraphModel dx="2368" dy="666" grid="1" gridSize="10" guides="1" tooltips="1" connect="1" arrows="1" fold="1" page="1" pageScale="1" pageWidth="850" pageHeight="1100" math="0" shadow="0">
      <root>
        <mxCell id="0" />
        <mxCell id="1" parent="0" />
        <mxCell id="Q7RbYkldAmDydhTnxtt3-25" value="" style="group" vertex="1" connectable="0" parent="1">
          <mxGeometry x="-70" y="270" width="810" height="220" as="geometry" />
        </mxCell>
        <mxCell id="Q7RbYkldAmDydhTnxtt3-13" value="" style="rounded=0;whiteSpace=wrap;html=1;" vertex="1" parent="Q7RbYkldAmDydhTnxtt3-25">
          <mxGeometry width="810" height="220" as="geometry" />
        </mxCell>
        <mxCell id="Q7RbYkldAmDydhTnxtt3-38" value="" style="endArrow=none;dashed=1;html=1;rounded=0;exitX=0;exitY=0.5;exitDx=0;exitDy=0;entryX=1;entryY=0.5;entryDx=0;entryDy=0;entryPerimeter=0;" edge="1" parent="Q7RbYkldAmDydhTnxtt3-25" source="Q7RbYkldAmDydhTnxtt3-13" target="Q7RbYkldAmDydhTnxtt3-13">
          <mxGeometry width="50" height="50" relative="1" as="geometry">
            <mxPoint x="-4.050000000000118" y="110.00000000000011" as="sourcePoint" />
            <mxPoint x="814.0500000000001" y="112.6400000000001" as="targetPoint" />
          </mxGeometry>
        </mxCell>
        <mxCell id="Q7RbYkldAmDydhTnxtt3-46" value="" style="html=1;verticalAlign=bottom;endArrow=open;dashed=1;endSize=8;edgeStyle=elbowEdgeStyle;elbow=vertical;curved=0;rounded=0;" edge="1" parent="Q7RbYkldAmDydhTnxtt3-25" source="aM9ryv3xv72pqoxQDRHE-6">
          <mxGeometry relative="1" as="geometry">
            <mxPoint x="140" y="140" as="targetPoint" />
            <Array as="points">
              <mxPoint x="515" y="140" />
            </Array>
            <mxPoint x="595" y="140" as="sourcePoint" />
          </mxGeometry>
        </mxCell>
        <mxCell id="Q7RbYkldAmDydhTnxtt3-47" value="6. 403 Forbidden" style="text;html=1;strokeColor=none;fillColor=none;align=center;verticalAlign=middle;whiteSpace=wrap;rounded=0;" vertex="1" parent="Q7RbYkldAmDydhTnxtt3-25">
          <mxGeometry x="190" y="116" width="110" height="30" as="geometry" />
        </mxCell>
        <mxCell id="aM9ryv3xv72pqoxQDRHE-1" value="API Gateway" style="shape=umlLifeline;perimeter=lifelinePerimeter;whiteSpace=wrap;html=1;container=0;dropTarget=0;collapsible=0;recursiveResize=0;outlineConnect=0;portConstraint=eastwest;newEdgeStyle={&quot;edgeStyle&quot;:&quot;elbowEdgeStyle&quot;,&quot;elbow&quot;:&quot;vertical&quot;,&quot;curved&quot;:0,&quot;rounded&quot;:0};" parent="1" vertex="1">
          <mxGeometry x="230" y="110" width="100" height="360" as="geometry" />
        </mxCell>
        <mxCell id="aM9ryv3xv72pqoxQDRHE-2" value="" style="html=1;points=[];perimeter=orthogonalPerimeter;outlineConnect=0;targetShapes=umlLifeline;portConstraint=eastwest;newEdgeStyle={&quot;edgeStyle&quot;:&quot;elbowEdgeStyle&quot;,&quot;elbow&quot;:&quot;vertical&quot;,&quot;curved&quot;:0,&quot;rounded&quot;:0};" parent="aM9ryv3xv72pqoxQDRHE-1" vertex="1">
          <mxGeometry x="45" y="70" width="10" height="260" as="geometry" />
        </mxCell>
        <mxCell id="aM9ryv3xv72pqoxQDRHE-3" value="1. getUserInformation()" style="html=1;verticalAlign=bottom;startArrow=oval;endArrow=block;startSize=8;edgeStyle=elbowEdgeStyle;elbow=vertical;curved=0;rounded=0;" parent="aM9ryv3xv72pqoxQDRHE-1" target="aM9ryv3xv72pqoxQDRHE-2" edge="1">
          <mxGeometry relative="1" as="geometry">
            <mxPoint x="-150" y="70" as="sourcePoint" />
            <Array as="points">
              <mxPoint x="-160" y="70" />
            </Array>
          </mxGeometry>
        </mxCell>
        <mxCell id="aM9ryv3xv72pqoxQDRHE-5" value="Auth Service" style="shape=umlLifeline;perimeter=lifelinePerimeter;whiteSpace=wrap;html=1;container=0;dropTarget=0;collapsible=0;recursiveResize=0;outlineConnect=0;portConstraint=eastwest;newEdgeStyle={&quot;edgeStyle&quot;:&quot;elbowEdgeStyle&quot;,&quot;elbow&quot;:&quot;vertical&quot;,&quot;curved&quot;:0,&quot;rounded&quot;:0};" parent="1" vertex="1">
          <mxGeometry x="420" y="110" width="100" height="360" as="geometry" />
        </mxCell>
        <mxCell id="aM9ryv3xv72pqoxQDRHE-6" value="" style="html=1;points=[];perimeter=orthogonalPerimeter;outlineConnect=0;targetShapes=umlLifeline;portConstraint=eastwest;newEdgeStyle={&quot;edgeStyle&quot;:&quot;elbowEdgeStyle&quot;,&quot;elbow&quot;:&quot;vertical&quot;,&quot;curved&quot;:0,&quot;rounded&quot;:0};" parent="aM9ryv3xv72pqoxQDRHE-5" vertex="1">
          <mxGeometry x="45" y="80" width="10" height="260" as="geometry" />
        </mxCell>
        <mxCell id="aM9ryv3xv72pqoxQDRHE-7" value="2. validateToken()" style="html=1;verticalAlign=bottom;endArrow=block;edgeStyle=elbowEdgeStyle;elbow=horizontal;curved=0;rounded=0;" parent="1" source="aM9ryv3xv72pqoxQDRHE-2" target="aM9ryv3xv72pqoxQDRHE-6" edge="1">
          <mxGeometry relative="1" as="geometry">
            <mxPoint x="385" y="200" as="sourcePoint" />
            <Array as="points">
              <mxPoint x="370" y="190" />
            </Array>
            <mxPoint as="offset" />
          </mxGeometry>
        </mxCell>
        <mxCell id="Q7RbYkldAmDydhTnxtt3-6" value="" style="endArrow=none;dashed=1;html=1;rounded=0;entryX=0.5;entryY=1;entryDx=0;entryDy=0;" edge="1" parent="1" target="Q7RbYkldAmDydhTnxtt3-30">
          <mxGeometry width="50" height="50" relative="1" as="geometry">
            <mxPoint x="70" y="440" as="sourcePoint" />
            <mxPoint x="75" y="160" as="targetPoint" />
          </mxGeometry>
        </mxCell>
        <mxCell id="Q7RbYkldAmDydhTnxtt3-9" value="User Service" style="shape=umlLifeline;perimeter=lifelinePerimeter;whiteSpace=wrap;html=1;container=0;dropTarget=0;collapsible=0;recursiveResize=0;outlineConnect=0;portConstraint=eastwest;newEdgeStyle={&quot;edgeStyle&quot;:&quot;elbowEdgeStyle&quot;,&quot;elbow&quot;:&quot;vertical&quot;,&quot;curved&quot;:0,&quot;rounded&quot;:0};" vertex="1" parent="1">
          <mxGeometry x="580" y="110" width="100" height="300" as="geometry" />
        </mxCell>
        <mxCell id="Q7RbYkldAmDydhTnxtt3-10" value="" style="html=1;points=[];perimeter=orthogonalPerimeter;outlineConnect=0;targetShapes=umlLifeline;portConstraint=eastwest;newEdgeStyle={&quot;edgeStyle&quot;:&quot;elbowEdgeStyle&quot;,&quot;elbow&quot;:&quot;vertical&quot;,&quot;curved&quot;:0,&quot;rounded&quot;:0};" vertex="1" parent="Q7RbYkldAmDydhTnxtt3-9">
          <mxGeometry x="45" y="80" width="10" height="170" as="geometry" />
        </mxCell>
        <mxCell id="Q7RbYkldAmDydhTnxtt3-24" value="Is Valid Token" style="shape=card;whiteSpace=wrap;html=1;direction=south;" vertex="1" parent="1">
          <mxGeometry x="-70" y="270" width="110" height="30" as="geometry" />
        </mxCell>
        <mxCell id="Q7RbYkldAmDydhTnxtt3-28" value="3. getUser()" style="html=1;verticalAlign=bottom;endArrow=block;edgeStyle=elbowEdgeStyle;elbow=vertical;curved=0;rounded=0;" edge="1" parent="1" source="aM9ryv3xv72pqoxQDRHE-6">
          <mxGeometry relative="1" as="geometry">
            <mxPoint x="465" y="299" as="sourcePoint" />
            <Array as="points">
              <mxPoint x="550" y="299" />
            </Array>
            <mxPoint x="625" y="299" as="targetPoint" />
            <mxPoint as="offset" />
          </mxGeometry>
        </mxCell>
        <mxCell id="Q7RbYkldAmDydhTnxtt3-29" value="5. User Information" style="html=1;verticalAlign=bottom;endArrow=open;dashed=1;endSize=8;edgeStyle=elbowEdgeStyle;elbow=vertical;curved=0;rounded=0;" edge="1" parent="1">
          <mxGeometry relative="1" as="geometry">
            <mxPoint x="70" y="333" as="targetPoint" />
            <Array as="points">
              <mxPoint x="545" y="333" />
            </Array>
            <mxPoint x="625" y="333" as="sourcePoint" />
          </mxGeometry>
        </mxCell>
        <mxCell id="Q7RbYkldAmDydhTnxtt3-30" value="Client" style="rounded=0;whiteSpace=wrap;html=1;" vertex="1" parent="1">
          <mxGeometry x="20" y="110" width="100" height="40" as="geometry" />
        </mxCell>
        <mxCell id="Q7RbYkldAmDydhTnxtt3-33" value="3. checkToken()" style="text;html=1;strokeColor=none;fillColor=none;align=center;verticalAlign=middle;whiteSpace=wrap;rounded=0;" vertex="1" parent="1">
          <mxGeometry x="475" y="180" width="105" height="30" as="geometry" />
        </mxCell>
        <mxCell id="Q7RbYkldAmDydhTnxtt3-39" value="True" style="text;html=1;strokeColor=none;fillColor=none;align=center;verticalAlign=middle;whiteSpace=wrap;rounded=0;" vertex="1" parent="1">
          <mxGeometry x="-120" y="320" width="60" height="30" as="geometry" />
        </mxCell>
        <mxCell id="Q7RbYkldAmDydhTnxtt3-40" value="False" style="text;html=1;strokeColor=none;fillColor=none;align=center;verticalAlign=middle;whiteSpace=wrap;rounded=0;" vertex="1" parent="1">
          <mxGeometry x="-120" y="400" width="60" height="30" as="geometry" />
        </mxCell>
        <mxCell id="Q7RbYkldAmDydhTnxtt3-45" value="" style="html=1;points=[];perimeter=orthogonalPerimeter;outlineConnect=0;targetShapes=umlLifeline;portConstraint=eastwest;newEdgeStyle={&quot;edgeStyle&quot;:&quot;elbowEdgeStyle&quot;,&quot;elbow&quot;:&quot;vertical&quot;,&quot;curved&quot;:0,&quot;rounded&quot;:0};" vertex="1" parent="1">
          <mxGeometry x="472" y="200" width="10" height="40" as="geometry" />
        </mxCell>
        <mxCell id="Q7RbYkldAmDydhTnxtt3-32" value="" style="endArrow=classic;html=1;rounded=0;" edge="1" parent="1" source="Q7RbYkldAmDydhTnxtt3-45" target="Q7RbYkldAmDydhTnxtt3-45">
          <mxGeometry width="50" height="50" relative="1" as="geometry">
            <mxPoint x="480" y="204" as="sourcePoint" />
            <mxPoint x="519" y="234" as="targetPoint" />
            <Array as="points">
              <mxPoint x="574" y="204" />
              <mxPoint x="574" y="234" />
            </Array>
          </mxGeometry>
        </mxCell>
      </root>
    </mxGraphModel>
  </diagram>
  <diagram id="C-_puuXJFSCaDH6j_kHK" name="Trang-2">
    <mxGraphModel dx="1173" dy="515" grid="1" gridSize="10" guides="1" tooltips="1" connect="1" arrows="1" fold="1" page="1" pageScale="1" pageWidth="827" pageHeight="1169" math="0" shadow="0">
      <root>
        <mxCell id="0" />
        <mxCell id="1" parent="0" />
        <mxCell id="vv8GRIMHw0QvSlFv67IF-1" value="Topic A" style="rounded=1;whiteSpace=wrap;html=1;" vertex="1" parent="1">
          <mxGeometry x="100" y="150" width="100" height="50" as="geometry" />
        </mxCell>
        <mxCell id="vv8GRIMHw0QvSlFv67IF-2" value="Topic B" style="rounded=1;whiteSpace=wrap;html=1;" vertex="1" parent="1">
          <mxGeometry x="665" y="150" width="100" height="50" as="geometry" />
        </mxCell>
        <mxCell id="vv8GRIMHw0QvSlFv67IF-9" value="" style="group" vertex="1" connectable="0" parent="1">
          <mxGeometry x="20" y="330" width="270" height="130" as="geometry" />
        </mxCell>
        <mxCell id="vv8GRIMHw0QvSlFv67IF-3" value="" style="rounded=1;whiteSpace=wrap;html=1;" vertex="1" parent="vv8GRIMHw0QvSlFv67IF-9">
          <mxGeometry width="270" height="100" as="geometry" />
        </mxCell>
        <mxCell id="vv8GRIMHw0QvSlFv67IF-4" value="Consumer" style="rounded=1;whiteSpace=wrap;html=1;" vertex="1" parent="vv8GRIMHw0QvSlFv67IF-9">
          <mxGeometry x="10" y="10" width="70" height="30" as="geometry" />
        </mxCell>
        <mxCell id="vv8GRIMHw0QvSlFv67IF-5" value="Consumer" style="rounded=1;whiteSpace=wrap;html=1;" vertex="1" parent="vv8GRIMHw0QvSlFv67IF-9">
          <mxGeometry x="180" y="10" width="70" height="30" as="geometry" />
        </mxCell>
        <mxCell id="vv8GRIMHw0QvSlFv67IF-6" value="Consumer" style="rounded=1;whiteSpace=wrap;html=1;" vertex="1" parent="vv8GRIMHw0QvSlFv67IF-9">
          <mxGeometry x="100" y="60" width="70" height="30" as="geometry" />
        </mxCell>
        <mxCell id="vv8GRIMHw0QvSlFv67IF-7" value="Consumer Group" style="text;html=1;strokeColor=none;fillColor=none;align=center;verticalAlign=middle;whiteSpace=wrap;rounded=0;" vertex="1" parent="vv8GRIMHw0QvSlFv67IF-9">
          <mxGeometry x="75" y="100" width="120" height="30" as="geometry" />
        </mxCell>
        <mxCell id="vv8GRIMHw0QvSlFv67IF-10" value="" style="group" vertex="1" connectable="0" parent="1">
          <mxGeometry x="749" y="330" width="270" height="130" as="geometry" />
        </mxCell>
        <mxCell id="vv8GRIMHw0QvSlFv67IF-11" value="" style="rounded=1;whiteSpace=wrap;html=1;" vertex="1" parent="vv8GRIMHw0QvSlFv67IF-10">
          <mxGeometry width="270" height="100" as="geometry" />
        </mxCell>
        <mxCell id="vv8GRIMHw0QvSlFv67IF-12" value="Consumer" style="rounded=1;whiteSpace=wrap;html=1;" vertex="1" parent="vv8GRIMHw0QvSlFv67IF-10">
          <mxGeometry x="10" y="10" width="70" height="30" as="geometry" />
        </mxCell>
        <mxCell id="vv8GRIMHw0QvSlFv67IF-13" value="Consumer" style="rounded=1;whiteSpace=wrap;html=1;" vertex="1" parent="vv8GRIMHw0QvSlFv67IF-10">
          <mxGeometry x="180" y="10" width="70" height="30" as="geometry" />
        </mxCell>
        <mxCell id="vv8GRIMHw0QvSlFv67IF-14" value="Consumer" style="rounded=1;whiteSpace=wrap;html=1;" vertex="1" parent="vv8GRIMHw0QvSlFv67IF-10">
          <mxGeometry x="100" y="60" width="70" height="30" as="geometry" />
        </mxCell>
        <mxCell id="vv8GRIMHw0QvSlFv67IF-15" value="Consumer Group" style="text;html=1;strokeColor=none;fillColor=none;align=center;verticalAlign=middle;whiteSpace=wrap;rounded=0;" vertex="1" parent="vv8GRIMHw0QvSlFv67IF-10">
          <mxGeometry x="75" y="100" width="120" height="30" as="geometry" />
        </mxCell>
        <mxCell id="vv8GRIMHw0QvSlFv67IF-16" value="" style="group" vertex="1" connectable="0" parent="1">
          <mxGeometry x="419" y="330" width="270" height="130" as="geometry" />
        </mxCell>
        <mxCell id="vv8GRIMHw0QvSlFv67IF-17" value="" style="rounded=1;whiteSpace=wrap;html=1;" vertex="1" parent="vv8GRIMHw0QvSlFv67IF-16">
          <mxGeometry width="270" height="100" as="geometry" />
        </mxCell>
        <mxCell id="vv8GRIMHw0QvSlFv67IF-18" value="Consumer" style="rounded=1;whiteSpace=wrap;html=1;" vertex="1" parent="vv8GRIMHw0QvSlFv67IF-16">
          <mxGeometry x="10" y="10" width="70" height="30" as="geometry" />
        </mxCell>
        <mxCell id="vv8GRIMHw0QvSlFv67IF-19" value="Consumer" style="rounded=1;whiteSpace=wrap;html=1;" vertex="1" parent="vv8GRIMHw0QvSlFv67IF-16">
          <mxGeometry x="180" y="10" width="70" height="30" as="geometry" />
        </mxCell>
        <mxCell id="vv8GRIMHw0QvSlFv67IF-20" value="Consumer" style="rounded=1;whiteSpace=wrap;html=1;" vertex="1" parent="vv8GRIMHw0QvSlFv67IF-16">
          <mxGeometry x="100" y="60" width="70" height="30" as="geometry" />
        </mxCell>
        <mxCell id="vv8GRIMHw0QvSlFv67IF-21" value="Consumer Group" style="text;html=1;strokeColor=none;fillColor=none;align=center;verticalAlign=middle;whiteSpace=wrap;rounded=0;" vertex="1" parent="vv8GRIMHw0QvSlFv67IF-16">
          <mxGeometry x="75" y="100" width="120" height="30" as="geometry" />
        </mxCell>
        <mxCell id="vv8GRIMHw0QvSlFv67IF-22" value="" style="endArrow=classic;html=1;rounded=0;exitX=0.5;exitY=1;exitDx=0;exitDy=0;entryX=0.481;entryY=0;entryDx=0;entryDy=0;entryPerimeter=0;" edge="1" parent="1" target="vv8GRIMHw0QvSlFv67IF-3">
          <mxGeometry width="50" height="50" relative="1" as="geometry">
            <mxPoint x="151" y="200" as="sourcePoint" />
            <mxPoint x="140.16666666666674" y="330" as="targetPoint" />
          </mxGeometry>
        </mxCell>
        <mxCell id="vv8GRIMHw0QvSlFv67IF-25" value="" style="endArrow=classic;html=1;rounded=0;exitX=0.5;exitY=1;exitDx=0;exitDy=0;entryX=0.525;entryY=-0.004;entryDx=0;entryDy=0;entryPerimeter=0;" edge="1" parent="1" source="vv8GRIMHw0QvSlFv67IF-2" target="vv8GRIMHw0QvSlFv67IF-17">
          <mxGeometry width="50" height="50" relative="1" as="geometry">
            <mxPoint x="590" y="270" as="sourcePoint" />
            <mxPoint x="640" y="220" as="targetPoint" />
          </mxGeometry>
        </mxCell>
        <mxCell id="vv8GRIMHw0QvSlFv67IF-26" value="" style="endArrow=classic;html=1;rounded=0;exitX=0.5;exitY=1;exitDx=0;exitDy=0;entryX=0.5;entryY=0;entryDx=0;entryDy=0;" edge="1" parent="1" source="vv8GRIMHw0QvSlFv67IF-2" target="vv8GRIMHw0QvSlFv67IF-11">
          <mxGeometry width="50" height="50" relative="1" as="geometry">
            <mxPoint x="850" y="280" as="sourcePoint" />
            <mxPoint x="900" y="230" as="targetPoint" />
          </mxGeometry>
        </mxCell>
      </root>
    </mxGraphModel>
  </diagram>
</mxfile>
